<svg
  xmlns="http://www.w3.org/2000/svg"
  viewBox="0 0 128 128"
  width="128"
  height="128"
  role="img"
  aria-label="AI Search"
>
  

  <path
    fill="#ffffff"
    fill-rule="evenodd"
    d="
      M57 14
      C33.252 14 14 33.252 14 57
      C14 80.748 33.252 100 57 100
      C66.296 100 74.903 97.048 81.935 92.031

      L108.464 118.56
      C111.588 121.684 116.654 121.684 119.778 118.56
      C122.902 115.436 122.902 110.37 119.778 107.246

      L93.249 80.717
      C98.12 73.747 101 65.29 101 57
      C101 33.252 80.748 14 57 14

      M57 28
      C40.984 28 28 40.984 28 57
      C28 73.016 40.984 86 57 86
      C73.016 86 86 73.016 86 57
      C86 40.984 73.016 28 57 28
      Z
    "
  />

  <path
    fill="#ffffff"
    d="
      M101 45
      L107 45
      L112 37
      C110.748 35.695 110 33.928 110 32
      C110 28.134 113.134 25 117 25
      C120.866 25 124 28.134 124 32
      C124 35.866 120.866 39 117 39
      C116.277 39 115.58 38.891 114.924 38.688

      L109.4 49
      L101 49
      Z
    "
  />

  <g
    fill="none"
    stroke="#ffffff"
    stroke-width="6"
    stroke-linecap="round"
    stroke-linejoin="round"
  >
    <path d="M57 48 L46 64" />
    <path d="M57 48 L68 64" />
    <path d="M46 64 L68 64" />
  </g>

  <g fill="#ffffff">
    <circle cx="57" cy="48" r="6.5" />
    <circle cx="46" cy="64" r="6.5" />
    <circle cx="68" cy="64" r="6.5" />
  </g>
</svg>